# xmcd CD database file
#
# Track frame offsets:
#	150
#	19541
#	38649
#	58732
#	75027
#	92161
#	109285
#	127400
#	146123
#	164603
#	183448
#	204731
#
# Disc length: 2953 seconds
#
# Revision: 0
# Processed by: cddbd v1.4PL0 Copyright (c) Steve Scherf et al.
# Submitted via: CDex 1.51
#
DISCID=a70b870c
DTITLE=Various Artist - Merengue en la Décima Avenida N.Y. `03
DYEAR=2003
DGENRE=Merengue
TTITLE0=Amarfis y La Banda De Atakke - El Arenque
TTITLE1=Homeboys and Johnny Ventura - María
TTITLE2=Joseph Portes - Quítame Esa Mujer
TTITLE3=Blondyman y La Banda Relajo - Me Voy A Pegar!
TTITLE4=Santy - Yo Say Malo
TTITLE5=Ricky Castro y La Banda Soberbia - Esa Niña
TTITLE6=Mambo - Te Recuerdo
TTITLE7=Rubby Pérez - No Cabe Olvido
TTITLE8=Grupo Eko - Pa'To'La Vida
TTITLE9=Osvil - Viento De Otoño
TTITLE10=Richie y La Banda X - Pa'lante
TTITLE11=Elvis Classe y La Banda Loca - El Negativo
EXTD=YEAR: 2003
EXTT0=
EXTT1=
EXTT2=
EXTT3=
EXTT4=
EXTT5=
EXTT6=
EXTT7=
EXTT8=
EXTT9=
EXTT10=
EXTT11=
PLAYORDER=
